<svg width="97" height="30" viewBox="0 0 97 30" fill="none" xmlns="http://www.w3.org/2000/svg">
<path d="M0 22.7276V5.21848H7.08345C8.71183 5.21848 10.096 5.68652 11.2358 6.62262C12.3843 7.55058 12.9585 8.65761 12.9585 9.94373C12.9585 10.6926 12.7314 11.4049 12.2771 12.0805C11.8315 12.7479 11.2658 13.2119 10.5802 13.4724C11.5229 13.684 12.29 14.1765 12.8813 14.9498C13.4727 15.7231 13.7684 16.6307 13.7684 17.6726C13.7684 19.0971 13.1899 20.2978 12.0329 21.2746C10.8759 22.2432 9.49174 22.7276 7.8805 22.7276H0ZM4.47376 12.1049H6.87776C7.33199 12.1049 7.71338 11.9665 8.02191 11.6898C8.33045 11.413 8.48471 11.0752 8.48471 10.6763C8.48471 10.2937 8.32616 9.96408 8.00906 9.68732C7.70052 9.41056 7.32342 9.27218 6.87776 9.27218H4.47376V12.1049ZM4.47376 18.6738H7.48198C7.97906 18.6738 8.39901 18.511 8.74183 18.1854C9.09321 17.8598 9.26891 17.4651 9.26891 17.0011C9.26891 16.5371 9.0975 16.1423 8.75468 15.8167C8.42044 15.4911 8.01334 15.3283 7.5334 15.3283H4.47376V18.6738Z" fill="white"/>
<path d="M16.5231 11.995C17.8086 10.7659 19.407 10.1513 21.3182 10.1513C23.2294 10.1513 24.8321 10.7659 26.1262 11.995C27.4204 13.2241 28.0674 14.7585 28.0674 16.5982C28.0674 17.7947 27.7718 18.8814 27.1804 19.8582C26.589 20.835 25.7791 21.6002 24.7507 22.1537C23.7222 22.6991 22.5781 22.9718 21.3182 22.9718C19.407 22.9718 17.8086 22.3653 16.5231 21.1525C15.2461 19.9396 14.6076 18.4215 14.6076 16.5982C14.6076 14.7504 15.2461 13.216 16.5231 11.995ZM21.3182 13.9974C20.5812 13.9974 19.9684 14.2457 19.4799 14.7422C18.9914 15.2306 18.7471 15.8493 18.7471 16.5982C18.7471 17.3226 18.9914 17.925 19.4799 18.4052C19.9684 18.8855 20.5812 19.1256 21.3182 19.1256C22.0724 19.1256 22.6938 18.8855 23.1823 18.4052C23.6794 17.925 23.9279 17.3226 23.9279 16.5982C23.9279 15.8493 23.6794 15.2306 23.1823 14.7422C22.6938 14.2457 22.0724 13.9974 21.3182 13.9974Z" fill="white"/>
<path d="M38.0084 14.2538H34.9231V17.404C34.9231 17.9657 35.1202 18.393 35.5144 18.6861C35.9087 18.9791 36.4143 19.1256 37.0314 19.1256C37.4171 19.1256 37.7428 19.0931 38.0084 19.0279V22.7276C37.5199 22.8578 36.8686 22.9229 36.0544 22.9229C34.4517 22.9229 33.1619 22.4386 32.1848 21.4699C31.2078 20.4931 30.7193 19.1622 30.7193 17.4773V14.2538H28.341V10.3955H30.7193V7.24533H34.9231V10.3955H38.0084V14.2538Z" fill="white"/>
<rect x="42.8809" y="0.5" width="54.1193" height="29" rx="4" fill="#1C64F2"/>
<path d="M56.6392 10.1513C58.2933 10.1513 59.5874 10.6519 60.5216 11.6531C61.4558 12.6543 61.9229 14.0381 61.9229 15.8045V22.7276H57.6934V16.3295C57.6934 15.6295 57.4962 15.0678 57.102 14.6446C56.7078 14.2131 56.185 13.9974 55.5336 13.9974C54.8908 13.9974 54.368 14.2131 53.9652 14.6446C53.571 15.0678 53.3739 15.6295 53.3739 16.3295V22.7276H49.1572V5.21848H53.3739V11.8241C54.1881 10.7089 55.2765 10.1513 56.6392 10.1513Z" fill="white"/>
<path d="M72.3909 10.3955H76.6205V22.7276H72.3909V21.3234C71.5682 22.4223 70.4883 22.9718 69.1513 22.9718C67.4972 22.9718 66.1988 22.4752 65.2561 21.4821C64.3219 20.4809 63.8548 19.0971 63.8548 17.3308V10.3955H68.0715V16.8057C68.0715 17.5058 68.2686 18.0674 68.6628 18.4907C69.0656 18.914 69.597 19.1256 70.2569 19.1256C70.8997 19.1256 71.4139 18.914 71.7996 18.4907C72.1938 18.0674 72.3909 17.5058 72.3909 16.8057V10.3955Z" fill="white"/>
<path d="M86.5615 10.1513C87.6413 10.1513 88.6312 10.4403 89.5311 11.0182C90.4396 11.5961 91.1509 12.3776 91.6651 13.3625C92.1879 14.3393 92.4493 15.4097 92.4493 16.5737C92.4493 18.3401 91.8751 19.8501 90.7267 21.1036C89.5868 22.349 88.1984 22.9718 86.5615 22.9718C84.9416 22.9718 83.6775 22.3897 82.769 21.2257V22.7276H78.5524V5.21848H82.769V11.8973C83.6775 10.7333 84.9416 10.1513 86.5615 10.1513ZM85.5587 19.15C86.3215 19.15 86.9728 18.9018 87.5128 18.4052C88.0527 17.9005 88.3227 17.2901 88.3227 16.5737C88.3227 15.8493 88.0527 15.2388 87.5128 14.7422C86.9814 14.2457 86.3301 13.9974 85.5587 13.9974C84.7788 13.9974 84.1189 14.2457 83.5789 14.7422C83.039 15.2388 82.769 15.8493 82.769 16.5737C82.769 17.2901 83.039 17.9005 83.5789 18.4052C84.1189 18.9018 84.7788 19.15 85.5587 19.15Z" fill="white"/>
</svg>
