<svg width="20" height="20" viewBox="0 0 20 20" fill="none" xmlns="http://www.w3.org/2000/svg">
<path d="M10.8334 13.3333H9.16669C8.70835 13.3333 8.33335 12.9583 8.33335 12.5H2.50835V15.8333C2.50835 16.75 3.25835 17.5 4.17502 17.5H15.8334C16.75 17.5 17.5 16.75 17.5 15.8333V12.5H11.6667C11.6667 12.9583 11.2917 13.3333 10.8334 13.3333ZM16.6667 5.83333H13.3334C13.3334 3.99167 11.8417 2.5 10 2.5C8.15835 2.5 6.66669 3.99167 6.66669 5.83333H3.33335C2.41669 5.83333 1.66669 6.58333 1.66669 7.5V10C1.66669 10.925 2.40835 11.6667 3.33335 11.6667H8.33335V10.8333C8.33335 10.375 8.70835 10 9.16669 10H10.8334C11.2917 10 11.6667 10.375 11.6667 10.8333V11.6667H16.6667C17.5834 11.6667 18.3334 10.9167 18.3334 10V7.5C18.3334 6.58333 17.5834 5.83333 16.6667 5.83333ZM8.33335 5.83333C8.33335 4.91667 9.08335 4.16667 10 4.16667C10.9167 4.16667 11.6667 4.91667 11.6667 5.83333H8.32502H8.33335Z" fill="white"/>
</svg>
