<svg width="20" height="20" viewBox="0 0 20 20" fill="none" xmlns="http://www.w3.org/2000/svg">
<path d="M15 0C12.2398 0.00308594 10.0031 2.23984 10 5H7.5C6.1193 5 5 6.1193 5 7.5V10H0V20H10V15H12.5C13.8807 15 15 13.8807 15 12.5V10C17.7614 10 20 7.76141 20 5C20 2.23859 17.7614 0 15 0ZM8.75 18.75H1.25V11.25H8.75V18.75ZM13.75 12.5C13.75 13.1904 13.1904 13.75 12.5 13.75H10V10H6.25V7.5C6.25 6.80965 6.80965 6.25 7.5 6.25H12.5C13.1904 6.25 13.75 6.80965 13.75 7.5V12.5ZM15 8.75V7.5C15 6.1193 13.8807 5 12.5 5H11.25C11.25 2.92895 12.9289 1.25 15 1.25C17.0711 1.25 18.75 2.92895 18.75 5C18.75 7.07105 17.0711 8.75 15 8.75Z" fill="white"/>
</svg>
